<svg width="156" height="156" viewBox="0 0 156 156" fill="none" xmlns="http://www.w3.org/2000/svg">
<circle cx="78" cy="78" r="78" fill="#75caff"/>
<path d="M26 54.6606L76.2113 104.872L72.0271 119.218L46.9214 100.09L33.7708 80.364L26 54.6606Z" fill="#D3D3D3"/>
<path d="M76.2114 104.872L103.11 112.643L128.814 113.838L113.87 122.207L85.7754 124L72.0271 119.218L76.2114 104.872Z" fill="#BFBFBF"/>
<path d="M76.2113 40.3145L127.618 82.755L130.607 95.3078L128.814 113.838L103.11 112.643L76.2113 104.872L26 54.6605L76.2113 40.3145Z" fill="white"/>
<path d="M37.9551 40.8606L55.2899 57V73.7887L37.9551 57.0515V40.8606Z" fill="#D3D3D3"/>
<path d="M45 34.0001L55.2899 40.9122V57L38 40.9122L40 36.5L45 34.0001Z" fill="#D3D3D3"/>
<path d="M78 25.4676L94.7417 34L60.072 43.901L55.29 40.9122L45 34L78 25.4676Z" fill="white"/>
<path d="M55.2897 73.7888L50.6347 54.0628L86.5 42.1079L91.1552 61.8336L55.2897 73.7888Z" fill="#BFBFBF"/>
<path d="M60.0717 55.856L60.0716 43.9011L94.7417 34L94.7417 44.7596L60.0717 55.856Z" fill="#BFBFBF"/>
<path d="M55.2899 40.9122L60.0719 43.901V54.2933L52 51.5L55.2899 40.9122Z" fill="#D3D3D3"/>
<path d="M91.753 66.6156L109.088 80.9618V90.1875L91.753 73.5V66.6156Z" fill="#D3D3D3"/>
<path d="M99.5238 64.2246L116.261 77.3752L109.088 80.9617L91.753 67.2134L99.5238 64.2246Z" fill="white"/>
<path d="M116.261 77.3752L109.088 80.9617V90.1843L116.261 86.2721V77.3752Z" fill="#BFBFBF"/>
<path d="M80.9934 70.7999L98.3283 86.3415V95.3078L80.9934 78.5707V70.7999Z" fill="#D3D3D3"/>
<path d="M88.7642 67.8112L106.697 82.1573L98.3283 86.3415L80.9934 70.7999L88.7642 67.8112Z" fill="white"/>
<path d="M106.697 82.1572L98.3282 86.3415V95.3078L106.697 91.1235V82.1572Z" fill="#BFBFBF"/>
<path d="M70.2338 76.1797L87.5687 91.7213V100.688L70.2338 83.9506V76.1797Z" fill="#D3D3D3"/>
<path d="M79.2001 72.5931L95.9372 87.537L87.5687 91.7213L70.2338 76.1797L79.2001 72.5931Z" fill="white"/>
<path d="M95.9373 87.537L87.5687 91.7213V100.688L95.9373 96.5033V87.537Z" fill="#BFBFBF"/>
<path d="M87.8328 61.5L103.708 74.9842V83.9505L87.8328 69.2709V61.5Z" fill="#D3D3D3"/>
<path d="M96.7991 57.9135L112.077 70.7999L103.708 74.9841L87.8328 61.5L96.7991 57.9135Z" fill="white"/>
<path d="M112.077 70.7999L103.708 74.9841V83.9505L112.077 79.7662V70.7999Z" fill="#BFBFBF"/>
<path d="M74.9001 66.4999L91.1552 80.9618V89.9281L74.9001 74.2708V66.4999Z" fill="#D3D3D3"/>
<path d="M83.8665 62.9134L99.5238 76.7775L91.1552 80.9617L74.9002 66.4999L83.8665 62.9134Z" fill="white"/>
<path d="M99.5238 76.7774L91.1552 80.9617V89.928L99.5238 85.7437V76.7774Z" fill="#BFBFBF"/>
</svg>
