<svg width="256" height="17" viewBox="0 0 256 17" fill="none" xmlns="http://www.w3.org/2000/svg">
    <defs>
        <clipPath id="myClip">
            <path stroke="#FFFFFF" fill-rule="evenodd" clip-rule="evenodd" d="M53.0001 0.798431L54.5618 2.04782C62.5781 8.46087 70.3774 11.5 78.0001 11.5C85.6228 11.5 93.422 8.46087 101.438 2.04782L103 0.798431L104.562 2.04782C112.578 8.46087 120.377 11.5 128 11.5C135.623 11.5 143.422 8.46087 151.438 2.04782L153 0.798431L154.562 2.04782C162.578 8.46087 170.377 11.5 178 11.5C185.623 11.5 193.422 8.46087 201.438 2.04782L203 0.798431L204.562 2.04782C212.578 8.46087 220.377 11.5 228 11.5C235.623 11.5 243.422 8.46087 251.438 2.04782C252.517 1.1853 254.09 1.3601 254.952 2.43826C255.815 3.51641 255.64 5.08964 254.562 5.95217C245.911 12.8724 237.044 16.5 228 16.5C219.5 16.5 211.155 13.2953 203 7.16394C194.845 13.2953 186.501 16.5 178 16.5C169.5 16.5 161.155 13.2953 153 7.16394C144.845 13.2953 136.501 16.5 128 16.5C119.5 16.5 111.155 13.2953 103 7.16394C94.8452 13.2953 86.5006 16.5 78.0001 16.5C69.4996 16.5 61.155 13.2953 53.0001 7.16394C44.8452 13.2953 36.5006 16.5 28.0001 16.5C18.9561 16.5 10.0887 12.8724 1.43835 5.95217C0.3602 5.08964 0.185396 3.51641 1.04792 2.43826C1.91044 1.3601 3.48367 1.1853 4.56183 2.04782C12.5781 8.46087 20.3774 11.5 28.0001 11.5C35.6228 11.5 43.422 8.46087 51.4384 2.04782L53.0001 0.798431Z"/>
        </clipPath>
    </defs>
</svg>
